<?xml version="1.0" encoding="utf-8"?>
<!-- Generator: Adobe Illustrator 23.0.3, SVG Export Plug-In . SVG Version: 6.00 Build 0)  -->
<svg version="1.1" id="Calque_1" xmlns="http://www.w3.org/2000/svg" xmlns:xlink="http://www.w3.org/1999/xlink" x="0px" y="0px"
	 viewBox="0 0 510.2 340.2" style="enable-background:new 0 0 510.2 340.2;" xml:space="preserve">
<style type="text/css">
	.st0{display:none;fill:#D0DDD2;stroke:#000000;stroke-miterlimit:10;}
	.st1{fill:#0F1C0A;}
	.st2{fill:#21331F;}
	.st3{clip-path:url(#SVGID_2_);}
	.st4{clip-path:url(#SVGID_4_);}
</style>
<rect x="-191.4" y="-130.6" class="st0" width="1024" height="600"/>
<g>
	<g>
		<path class="st1" d="M118,259.7c0.1,0.3,0.2,0.7,0.2,1c0,1.5-1.3,2.8-3,2.8c-1.1,0-2.4-0.8-2.8-1.8l-10.3-24.2H89.5h0
			c-1.7,0-3-1.3-3-2.8s1.3-2.8,3-2.8h0h10.2L89,206.5l-23.5,55.2c-0.4,1-1.7,1.8-2.8,1.8c-1.6,0-3-1.3-3-2.8c0-0.3,0.1-0.8,0.2-1
			l26.3-61.8c0.4-1,1.7-1.8,2.8-1.8c1.1,0,2.4,0.8,2.8,1.8L118,259.7z"/>
		<path class="st1" d="M181.9,225c0,6.6-4.1,15.6-9.1,20.2c-2.8,2.6-8,5.7-11.8,6.9l14.6,6.1c1,0.4,1.8,1.6,1.8,2.6
			c0,1.5-1.3,2.8-3,2.8l0,0l0,0c-0.3,0-0.9-0.1-1.2-0.3l-19.3-8.1v5.5c0,1.5-1.3,2.8-3,2.8c-1.7,0-3-1.3-3-2.8V199
			c0-1.5,1.3-2.8,3-2.8c0,0,0,0,0.1,0c7.1,0,16.9,3.8,21.9,8.4c5,4.6,9.1,13.7,9.1,20.2v0.1V225z M153.9,248c12.5-1.4,22-11.3,22-23
			s-9.6-21.7-22-23V248z"/>
		<path class="st1" d="M212.5,261.1v-61.8v-0.1c0-1.5,1.3-2.8,3-2.8s3,1.3,3,2.8v0.1v61.8c0,1.5-1.3,2.8-3,2.8
			S212.5,262.6,212.5,261.1z"/>
		<path class="st1" d="M298,199v61.7c0,1.5-1.3,2.8-3,2.8c-0.9,0-2-0.5-2.5-1.3l-39.7-54.2v52.6c0,1.5-1.3,2.8-3,2.8s-3-1.3-3-2.8
			V199c0-1.5,1.3-2.8,3-2.8c0.9,0,2,0.5,2.5,1.3l39.8,54.2v-52.6c0-1.5,1.3-2.8,3-2.8C296.7,196.3,298,197.5,298,199z"/>
		<path class="st1" d="M383.2,259.7c0.1,0.3,0.2,0.7,0.2,1c0,1.5-1.3,2.8-3,2.8c-1.1,0-2.4-0.8-2.8-1.8l-10.3-24.2h-12.6h0
			c-1.6,0-3-1.3-3-2.8s1.3-2.8,3-2.8h0h10.2L354,206.5l-23.5,55.2c-0.4,1-1.7,1.8-2.8,1.8c-1.6,0-3-1.3-3-2.8c0-0.3,0.1-0.8,0.2-1
			l26.3-61.8c0.4-1,1.7-1.8,2.8-1.8c1.1,0,2.4,0.8,2.8,1.8L383.2,259.7z"/>
		<path class="st1" d="M417.4,214.5c0,7,6.1,12.6,13.6,12.6c10.8,0,19.6,8.2,19.6,18.1c0,10-8.8,18.1-19.6,18.1s-19.6-8.2-19.6-18.1
			c0-1.5,1.3-2.8,3-2.8s3,1.3,3,2.8c0,7,6.1,12.6,13.6,12.6c7.5,0,13.6-5.7,13.6-12.6c0-6.9-6.1-12.6-13.6-12.6
			c-10.8,0-19.6-8.2-19.6-18.1c0-10,8.8-18.1,19.6-18.1c10.8,0,19.6,8.2,19.6,18.1c0,1.5-1.3,2.8-3,2.8c-1.6,0-3-1.3-3-2.8
			c0-7-6.1-12.6-13.6-12.6C423.5,202,417.4,207.6,417.4,214.5z"/>
	</g>
	<g>
		<g>
			<path class="st2" d="M212.7,295.6v10.4c0,0.8-0.5,1.5-1.1,1.5s-1.1-0.7-1.1-1.5v-10.4c0-3.6-2.2-6.5-4.9-6.5s-4.9,2.9-4.9,6.5
				v10.4l0,0c0,0.8-0.5,1.5-1.1,1.5c-0.6,0-1.1-0.7-1.1-1.5l0,0v-10.4c0-5.3,3.2-9.5,7.2-9.5S212.7,290.3,212.7,295.6z"/>
			<path class="st2" d="M222.4,296.8c0-2.4,1-5.9,2.4-7.6c1.3-1.7,3.9-3.2,5.7-3.2c4.5,0,8.1,4.8,8.1,10.8v9.3
				c0,0.8-0.5,1.5-1.1,1.5s-1.1-0.7-1.1-1.5v-9.3c0-4.3-2.6-7.8-5.8-7.8s-5.8,3.5-5.8,7.8s2.6,7.8,5.9,7.8l0,0c0.8,0,2-0.4,2.7-0.9
				c0.1-0.1,0.4-0.2,0.5-0.2c0.6,0,1.1,0.7,1.1,1.5c0,0.5-0.2,1.1-0.6,1.3c-1,0.7-2.7,1.3-3.8,1.3
				C226,307.5,222.4,302.7,222.4,296.8z"/>
			<path class="st2" d="M250.5,287.5v8.9c0,4.4,2.7,7.9,5.9,7.9c0.6,0,1.1,0.7,1.1,1.5s-0.5,1.5-1.1,1.5l0,0
				c-4.5,0-8.2-4.9-8.2-10.9v-24c0-0.8,0.5-1.5,1.1-1.5s1.1,0.7,1.1,1.5v12.1h5.9c0.6,0,1.1,0.7,1.1,1.5c0,0.8-0.5,1.5-1.1,1.5
				L250.5,287.5L250.5,287.5z"/>
			<path class="st2" d="M285.5,287.4v8.8c0,0,0,0,0,0.1c0,2.6-1.1,6.1-2.5,7.9s-4.1,3.3-6,3.3c-4.7,0-8.5-5.1-8.5-11.3v-8.8
				c0-0.8,0.5-1.5,1.1-1.5c0.6,0,1.1,0.7,1.1,1.5v8.8c0,4.6,2.8,8.3,6.2,8.3c3.4,0,6.2-3.7,6.2-8.3v-8.8c0-0.8,0.5-1.5,1.1-1.5
				C284.9,286,285.5,286.6,285.5,287.4z"/>
			<path class="st2" d="M304.7,287.6c0,0.8-0.5,1.5-1.1,1.5c-3.3,0-6,3.5-6,7.9v9.1l0,0c0,0.8-0.5,1.5-1.1,1.5s-1.1-0.7-1.1-1.5l0,0
				V297c0-6,3.7-10.9,8.2-10.9C304.3,286,304.7,286.7,304.7,287.6z"/>
			<path class="st2" d="M326.5,302.7c0.2-0.2,0.5-0.4,0.7-0.4c0.6,0,1.1,0.7,1.1,1.5c0,0.4-0.2,1-0.5,1.3c-1.2,1.3-3.5,2.4-5.1,2.4
				c-4.5,0-8-4.8-8-10.7c0-5.9,3.6-10.7,8-10.7c1.6,0,3.9,1.1,5.1,2.4c0.2,0.3,0.4,0.8,0.4,1.1s-0.1,0.9-0.3,1.1l-7.4,9.3
				c-0.2,0.3-0.5,0.5-0.8,0.5c-0.6,0-1.1-0.7-1.1-1.5c0-0.4,0.2-0.9,0.4-1.1l6.3-7.9c-0.6-0.4-1.8-0.8-2.5-0.8
				c-3.2,0-5.8,3.5-5.8,7.7c0,4.2,2.6,7.7,5.8,7.7C324,304.4,325.6,303.6,326.5,302.7L326.5,302.7z"/>
		</g>
	</g>
	<g>
		<g>
			<g>
				<g>
					<defs>
						<rect id="SVGID_1_" x="201.8" y="32.6" width="132.1" height="156.9"/>
					</defs>
					<clipPath id="SVGID_2_">
						<use xlink:href="#SVGID_1_"  style="overflow:visible;"/>
					</clipPath>
					<g class="st3">
						<g>
							<g>
								<defs>
									<rect id="SVGID_3_" x="201.8" y="32.6" width="132.1" height="156.9"/>
								</defs>
								<clipPath id="SVGID_4_">
									<use xlink:href="#SVGID_3_"  style="overflow:visible;"/>
								</clipPath>
								<g transform="matrix(1 0 0 1 3.051758e-05 0)" class="st4">
									
										<image style="overflow:visible;enable-background:new    ;" width="764" height="830" xlink:href="CA37E0C2.png"  transform="matrix(0.1671 0 0 0.1891 204.0456 32.5837)">
									</image>
								</g>
							</g>
						</g>
					</g>
				</g>
			</g>
		</g>
	</g>
</g>
</svg>
